# xmcd CD database file
#
# Track frame offsets:
#	150
#	20871
#	38143
#	56097
#	74445
#	99725
#	113654
#	135258
#	152460
#	171650
#	203348
#	226324
#
# Disc length: 3361 seconds
#
# Revision: 0
# Processed by: cddbd v1.5.1PL2 Copyright (c) Steve Scherf et al.
# Submitted via: CDex 1.51
#
DISCID=9e0d1f0c
DTITLE=Celia Cruz - El Carnaval De La Vida
DYEAR=2003
DGENRE=Salsa
TTITLE0=La Vida Es Un Carnaval
TTITLE1=Que Le Den Candela
TTITLE2=Mi Vida Es Cantar
TTITLE3=Te Busco
TTITLE4=La Guagua
TTITLE5=Azucar Negra
TTITLE6=Sazon
TTITLE7=Amores De Un Dia
TTITLE8=Usted Abuso
TTITLE9=La Candela - El Yerbero Moderno/Bemba Colora
TTITLE10=Cucala - Live Version
TTITLE11=Quimbara - Live Version
EXTD=YEAR: 2003
EXTT0=
EXTT1=
EXTT2=
EXTT3=
EXTT4=
EXTT5=
EXTT6=
EXTT7=
EXTT8=
EXTT9=
EXTT10=
EXTT11=
PLAYORDER=
